<?xml version="1.0" encoding="UTF-8"?>
<svg xmlns="http://www.w3.org/2000/svg" xmlns:xlink="http://www.w3.org/1999/xlink" viewBox="0 0 120 120" width="120px" height="120px">
<g id="surface112592455">
<path style=" stroke:none;fill-rule:nonzero;fill:rgb(100%,100%,100%);fill-opacity:1;" d="M 60 12 C 33.492188 12 12 33.492188 12 60 C 12 84.0625 29.726562 103.9375 52.824219 107.40625 L 52.824219 72.71875 L 40.949219 72.71875 L 40.949219 60.105469 L 52.824219 60.105469 L 52.824219 51.707031 C 52.824219 37.808594 59.597656 31.707031 71.148438 31.707031 C 76.679688 31.707031 79.609375 32.121094 80.992188 32.304688 L 80.992188 43.316406 L 73.113281 43.316406 C 68.207031 43.316406 66.496094 47.96875 66.496094 53.207031 L 66.496094 60.105469 L 80.867188 60.105469 L 78.921875 72.71875 L 66.496094 72.71875 L 66.496094 107.507812 C 89.925781 104.332031 108 84.300781 108 60 C 108 33.492188 86.507812 12 60 12 Z M 60 12 "/>
</g>
</svg>
